<svg xmlns="http://www.w3.org/2000/svg" width="1024" height="1024" viewBox="0 0 1024 1024" version="1.1">
	<path d="M 484.500 172.106 C 410.311 177.667, 341.546 202.166, 284.500 243.360 C 219.805 290.078, 169.384 358.142, 144.533 432.305 C 129.001 478.657, 123.089 518.334, 124.318 567.977 C 125.131 600.831, 128.484 625.376, 136.451 656.806 C 148.391 703.908, 173.734 755.738, 202.022 790.906 C 212.145 803.491, 217.689 808.483, 225.820 812.335 L 232.500 815.500 512 815.768 L 791.500 816.035 798.926 812.376 C 807.718 808.044, 816.058 800.095, 826.604 785.997 C 892.094 698.449, 916.076 581.771, 891.411 470.691 C 883.846 436.621, 869.605 399.388, 853.075 370.462 C 816.101 305.759, 762.793 252.828, 700.069 218.538 C 649.005 190.622, 595.742 176.054, 530 172.021 C 511.449 170.884, 500.544 170.904, 484.500 172.106 M 479 206.103 C 393.238 213.581, 316.528 250.107, 256.663 311.972 C 206.938 363.358, 173.822 427.827, 162.616 495.058 C 158.091 522.203, 156.667 558.772, 159.054 586.500 C 162.861 630.722, 174.418 672.949, 193.541 712.500 C 207.840 742.074, 231.673 776.758, 240.896 781.414 C 243.018 782.486, 293.222 782.857, 512.190 783.421 C 750.518 784.035, 781.210 783.943, 783.795 782.606 C 789.892 779.453, 804.468 760.956, 816.325 741.325 C 864.806 661.056, 880.015 561.520, 857.478 472 C 849.962 442.147, 834.140 404.874, 816.673 375.873 C 783.141 320.198, 729.698 270.885, 671.115 241.566 C 631.661 221.819, 589.457 210.203, 542 206.029 C 528.668 204.856, 492.819 204.898, 479 206.103 M 485.500 253.642 C 453.785 257.257, 432.677 262.031, 406.581 271.490 C 361.131 287.965, 320.132 314.288, 288 347.624 C 235.113 402.492, 205.068 478.112, 205.011 556.500 C 204.975 605.496, 219.171 660.103, 243.226 703.500 C 255.617 725.856, 264.164 736.455, 273.500 741.043 L 278.500 743.500 498 744.281 C 618.725 744.710, 723.800 744.931, 731.500 744.772 C 744.637 744.501, 745.870 744.303, 751.500 741.560 C 762.702 736.104, 773.061 723.494, 784.913 700.887 C 815.834 641.906, 827.069 571.360, 815.976 505.846 C 804.482 437.971, 769.282 374.255, 719.500 331.215 C 667.567 286.315, 608.458 260.589, 542.144 254.025 C 532.713 253.092, 492.702 252.821, 485.500 253.642 M 481.500 287.606 C 442.839 292.035, 401.405 306.244, 367.889 326.567 C 353.730 335.153, 347.592 339.464, 334.637 349.923 C 328.113 355.190, 322.078 360.053, 321.225 360.729 C 319.460 362.129, 318.074 360.817, 336.914 375.578 C 350.885 386.525, 353 389.302, 353 396.698 C 353 405.577, 348.155 411.950, 339.821 414.032 C 332.833 415.779, 329.884 414.343, 312.819 400.890 C 304.485 394.320, 297.179 389.094, 296.583 389.276 C 294.881 389.798, 282.888 406.110, 277.115 415.754 C 255.290 452.217, 242.448 492.299, 239.434 533.358 L 238.726 543 257.462 543 C 278.690 543, 281.435 543.677, 285.579 549.939 C 291.093 558.272, 288.782 569.096, 280.500 573.729 C 276.757 575.823, 275.291 575.968, 257.700 575.984 L 238.901 576 239.559 582.250 C 243.418 618.862, 255.204 656.011, 273.588 689.500 C 281.315 703.574, 284.128 707.508, 287.802 709.370 C 290.054 710.512, 327.379 710.801, 513.500 711.119 L 736.500 711.500 739.869 709.097 C 749.449 702.265, 768.982 661.044, 777.350 630 C 788.728 587.793, 789.984 541.317, 780.887 499.177 C 772.720 461.347, 756.230 425.840, 731.673 393.207 C 729.482 390.295, 727.109 388.045, 726.400 388.207 C 725.691 388.368, 712.634 401.325, 697.385 417 C 644.706 471.153, 578.573 543.572, 579.626 545.953 C 580.002 546.804, 580.515 552.090, 580.767 557.700 C 581.342 570.546, 579.344 580.343, 573.777 591.979 C 570.421 598.995, 568.148 602.024, 560.610 609.527 C 553.231 616.871, 549.885 619.383, 543 622.745 C 518.477 634.718, 490.263 631.444, 469.356 614.199 C 438.412 588.675, 435.492 541.508, 463.144 513.856 C 476.427 500.573, 491.189 494.585, 510.500 494.646 C 523.073 494.686, 530.398 496.318, 542.189 501.708 L 549.922 505.243 575.660 481.371 C 609.831 449.679, 642.580 419.152, 676.247 387.608 L 703.881 361.716 695.691 354.778 C 673.872 336.293, 654.684 323.865, 630.134 312.314 C 601.149 298.677, 568.049 289.585, 538.750 287.213 L 529 286.424 529 307 C 529 326.367, 528.868 327.835, 526.750 331.980 C 523.741 337.868, 520.248 340.232, 513.762 340.770 C 506.943 341.335, 502.137 339.357, 498.382 334.437 L 495.500 330.661 495.197 308.331 C 495.030 296.049, 494.580 286.052, 494.197 286.116 C 493.814 286.179, 488.100 286.850, 481.500 287.606 M 500.324 529.439 C 487.314 533.507, 478.344 544.851, 477.237 558.634 C 475.585 579.220, 491.381 596.065, 512.455 596.189 C 521.906 596.245, 529.363 593.349, 536.452 586.869 C 560.227 565.141, 544.078 527.731, 511.068 528.067 C 507.456 528.104, 502.621 528.721, 500.324 529.439" stroke="none" fill="#000000" fill-rule="evenodd"/>
</svg>