<svg xmlns="http://www.w3.org/2000/svg" width="1024" height="1024" viewBox="0 0 1024 1024" version="1.1">
	<path d="M 197.500 102.109 C 178.293 104.919, 165.779 115.508, 160.972 133.017 C 158.759 141.077, 159.898 882.889, 162.144 896.500 C 164.912 913.270, 176.943 925.885, 194.542 930.469 C 199.747 931.825, 229.947 932, 458.122 932 C 732.070 932, 723.443 932.141, 734.444 927.482 C 743.174 923.784, 755.609 913.884, 778.892 892.096 C 798.288 873.947, 813.061 857.318, 817.361 848.795 C 825.028 833.599, 824.364 866.603, 824.720 483.003 C 824.939 247.905, 824.711 137.927, 823.999 134.503 C 820.732 118.781, 810.901 108.667, 793.500 103.127 C 788.979 101.687, 760.488 101.520, 496 101.383 C 332.392 101.298, 200.856 101.617, 197.500 102.109 M 192.962 129.250 C 189.727 130.881, 187.859 132.738, 186.171 136 L 183.842 140.500 184.528 516.500 C 185.119 840.445, 185.414 892.983, 186.655 895.986 C 188.395 900.197, 191.464 903.619, 195.500 905.845 C 198.266 907.371, 218.300 907.520, 452.160 907.760 C 613.356 907.925, 706.745 907.667, 708.357 907.054 C 713.296 905.176, 714.007 902.592, 715.427 881.349 C 716.831 860.340, 717.289 858.186, 721.390 853.313 C 726.713 846.987, 728.754 846.579, 758 846.001 C 783.143 845.503, 784.743 845.357, 789.243 843.152 C 794.712 840.472, 797.423 837.115, 799.134 830.900 C 800.882 824.551, 801.742 649.846, 801.391 372.500 C 801.187 211.757, 800.781 143.403, 800.013 140.781 C 798.544 135.769, 794.441 131.105, 789.541 128.880 C 785.650 127.112, 774.570 127.043, 491.462 127.022 L 197.424 127 192.962 129.250 M 268.500 177.409 C 257.363 180.169, 247.874 187.484, 243.270 196.858 C 240.832 201.824, 240.501 203.638, 240.505 212 C 240.509 220.387, 240.826 222.102, 243.215 226.638 C 246.885 233.609, 252.701 238.391, 264 243.730 C 289.330 255.698, 290.109 256.131, 292.059 259.330 C 298.277 269.527, 289.364 279.159, 275.091 277.667 C 268.065 276.933, 265.107 275.754, 258.555 271.075 C 252.235 266.562, 247.285 266.395, 242.949 270.549 C 230.346 282.623, 251.079 302, 276.602 302 C 289.719 302, 304.136 295.933, 310.337 287.803 C 319.609 275.646, 320.355 257.693, 312.064 246.247 C 307.386 239.790, 299.631 234.629, 283.968 227.550 C 265.529 219.217, 260.754 214.363, 264.160 207.414 C 266.434 202.775, 270.356 200.636, 277.412 200.187 C 285.422 199.676, 289.233 200.923, 295.501 206.103 C 299.949 209.778, 300.877 210.146, 304.480 209.662 C 309.628 208.972, 315 203.515, 315 198.975 C 315 183.980, 289.573 172.187, 268.500 177.409 M 642.880 178.380 C 628.852 182.160, 619.097 194.275, 618.224 209 C 617.686 218.088, 618.974 223.293, 623.323 229.604 C 627.668 235.908, 634.937 240.819, 649.264 247.127 C 666.404 254.675, 669.892 257.705, 669.965 265.115 C 670.033 272.080, 663.530 277.005, 654.282 276.994 C 647.440 276.986, 642.978 275.501, 636.198 270.974 C 628.772 266.014, 624.478 265.708, 619.887 269.809 C 615.505 273.725, 614.747 280.904, 618.178 286 C 621.632 291.130, 631.550 297.393, 639.308 299.341 C 655.950 303.522, 671.947 300.248, 682.871 290.426 C 690.115 283.913, 693.443 275.894, 693.423 265 C 693.393 247.957, 686.120 239.303, 661.729 227.282 C 646.051 219.556, 642 216.140, 642 210.646 C 642 204.213, 647.739 200, 656.500 200 C 662.076 200, 666.511 201.771, 672.629 206.443 C 679.819 211.933, 687.061 210.606, 690.599 203.150 C 694.837 194.220, 684.513 182.620, 668.543 178.367 C 662.312 176.707, 649.062 176.714, 642.880 178.380 M 370.457 180.863 C 368.784 181.884, 366.713 183.794, 365.856 185.109 C 363.430 188.829, 331 287.110, 331 290.741 C 331 298.875, 341.752 303.729, 348.934 298.838 C 351.964 296.775, 352.841 295.061, 356.404 284.250 L 360.440 272 380.074 272 L 399.707 272 403.369 283.424 C 406.271 292.476, 407.667 295.384, 410.092 297.424 C 416.117 302.494, 426.585 299.817, 428.968 292.598 C 430.074 289.244, 429.187 286.166, 413.451 238.770 C 404.271 211.122, 395.946 187.150, 394.949 185.500 C 392.081 180.748, 388.149 178.999, 380.346 179.004 C 375.443 179.006, 372.637 179.534, 370.457 180.863 M 448.775 180.559 C 443.447 183.450, 443.520 182.699, 443.228 237.500 C 442.977 284.647, 443.090 288.764, 444.728 292 C 448.137 298.734, 449.994 299.079, 481.179 298.772 C 507.478 298.514, 508.998 298.396, 511.679 296.406 C 517.324 292.217, 517.749 282.781, 512.497 278.250 C 509.967 276.068, 509.243 276, 488.444 276 L 467 276 467 231.450 C 467 182.958, 466.901 182.054, 461.387 179.957 C 457.747 178.573, 451.922 178.851, 448.775 180.559 M 535.406 180.879 C 527.974 184.298, 528 184.096, 528.002 239.270 C 528.003 292.437, 527.925 291.732, 534.320 296.429 C 537.812 298.994, 549.686 299.513, 576.263 298.263 C 593.537 297.451, 594.098 297.357, 596.623 294.832 C 599.986 291.469, 600.904 284.648, 598.594 280.183 C 595.670 274.528, 593.319 274, 571.050 274 L 551 274 551 262.500 L 551 251 568.050 251 C 580.792 251, 585.790 250.643, 587.835 249.585 C 591.948 247.459, 593.464 243.603, 593.111 236.173 C 593.050 234.893, 591.685 232.531, 590.077 230.923 L 587.154 228 569.077 228 L 551 228 551 215.055 L 551 202.110 572.479 201.805 L 593.959 201.500 596.729 198.727 C 599.079 196.376, 599.500 195.126, 599.500 190.500 C 599.500 185.873, 599.079 184.625, 596.729 182.273 L 593.958 179.500 566.729 179.248 C 541.859 179.018, 539.145 179.159, 535.406 180.879 M 379.219 212 C 378.610 213.925, 376.051 222.352, 373.533 230.726 C 371.016 239.100, 368.693 246.638, 368.371 247.476 C 367.866 248.792, 369.520 249, 380.500 249 C 391.439 249, 393.133 248.789, 392.633 247.487 C 392.314 246.655, 390.199 240.017, 387.933 232.737 C 385.668 225.457, 383.029 217.025, 382.070 214 L 380.327 208.500 379.219 212 M 740.500 330.498 C 739.950 330.685, 720.825 335.839, 698 341.951 C 675.175 348.062, 654.475 353.842, 652 354.794 C 645.957 357.118, 643.173 362.297, 644.889 368.024 C 646.363 372.943, 651.117 377, 655.407 377 C 657.197 377, 670.006 373.918, 683.872 370.152 C 708.276 363.523, 709.008 363.387, 706.747 365.902 C 705.462 367.331, 700.381 372.995, 695.456 378.489 C 681.763 393.762, 661.968 414.967, 624.060 454.971 C 568.914 513.166, 555.609 527, 554.782 527 C 554.355 527, 552.317 525.489, 550.253 523.643 C 540.216 514.666, 487.172 470.739, 482.759 467.750 C 478.147 464.626, 471.698 464.067, 467.200 466.402 C 464.635 467.733, 441.293 491.033, 408.496 525 C 400.265 533.525, 371.610 562.550, 344.818 589.500 C 318.027 616.450, 295.633 639.767, 295.053 641.315 C 292.760 647.444, 294.827 653.825, 299.967 656.483 C 303.888 658.511, 307.317 658.394, 311.790 656.082 C 313.946 654.967, 341.471 627.634, 377.498 590.832 C 466.777 499.632, 474.330 492, 475.309 492 C 475.794 492, 489.986 503.836, 506.845 518.302 C 546.922 552.688, 548.296 553.777, 552.575 554.580 C 559.692 555.915, 562.615 554.047, 578.084 538.269 C 601.056 514.840, 682.304 428.808, 709.412 399.208 C 718.122 389.697, 725.432 382.099, 725.656 382.323 C 725.880 382.547, 724.738 388.753, 723.117 396.115 C 715.813 429.301, 715.704 431.629, 721.304 435.044 C 725.156 437.392, 731.720 437.585, 734.783 435.439 C 739.200 432.346, 738.946 433.290, 751.130 374.500 C 758.037 341.166, 758.218 337.371, 753.113 332.809 C 750.665 330.623, 749.030 330.017, 745.734 330.079 C 743.405 330.122, 741.050 330.311, 740.500 330.498 M 240.071 373.727 C 238.185 374.702, 235.828 376.625, 234.833 378 C 233.101 380.393, 233.021 389.583, 232.959 592.198 C 232.888 826.717, 232.342 807.799, 239.299 812.040 C 242.451 813.963, 246.332 813.993, 495.016 813.996 C 737.669 814, 747.664 813.929, 750.938 812.173 C 754.691 810.160, 758.002 804.926, 757.996 801.016 C 757.991 797.495, 754.489 792.137, 751.434 790.975 C 750.024 790.439, 744.174 790, 738.435 790 L 728 790 728 645.901 C 728 514.602, 727.855 501.496, 726.365 498.357 C 723.113 491.504, 723.087 491.500, 678.956 491.500 C 635.035 491.500, 636.208 491.330, 631.956 498.304 C 630.079 501.382, 630.007 503.816, 630.004 564.198 L 630 626.896 598.071 627.198 C 567.480 627.487, 566.024 627.588, 563.321 629.594 C 561.770 630.745, 559.963 633.220, 559.306 635.094 C 558.424 637.612, 558.098 658.370, 558.056 714.750 L 558 791 550 791 C 544.296 791, 541.984 790.641, 541.944 789.750 C 541.914 789.063, 541.937 742.529, 541.997 686.343 C 542.117 572.661, 542.446 578.338, 535.568 575.464 C 532.695 574.263, 525.035 574, 493 574 C 449.129 574, 448.093 574.140, 445.464 580.432 C 444.211 583.432, 444 598.833, 444 687.468 L 444 791 436 791 L 428 791 428 732.950 C 428 668.798, 428.189 670.741, 421.643 667.635 C 418.649 666.214, 413.399 666, 381.567 666 C 351.668 666, 344.292 666.269, 341.432 667.464 C 334.913 670.188, 335 669.296, 335 733.468 L 335 791 295.500 791 L 256 791 255.985 586.250 C 255.974 425.741, 255.704 380.981, 254.735 379.096 C 251.839 373.461, 245.251 371.048, 240.071 373.727 M 653 653.063 L 653 791.127 677.918 790.813 C 691.624 790.641, 703.198 790.138, 703.639 789.696 C 704.080 789.254, 704.621 727.267, 704.841 651.946 L 705.241 515 679.120 515 L 653 515 653 653.063 M 467 693.500 L 467 791 492.500 791 L 518 791 518.003 778.750 C 518.005 772.013, 518.303 728.138, 518.666 681.250 L 519.324 596 493.162 596 L 467 596 467 693.500 M 581 720.500 L 581 791 605 791 L 629 791 629 720.500 L 629 650 605 650 L 581 650 581 720.500 M 358 739.500 L 358 791 382 791 L 406 791 406 741.082 C 406 713.627, 405.727 690.452, 405.393 689.582 C 404.863 688.202, 401.802 688, 381.393 688 L 358 688 358 739.500 M 738.634 869.750 C 738.359 870.712, 737.828 878.250, 737.455 886.500 L 736.777 901.500 740.134 898.500 C 747.173 892.210, 755.851 884.202, 764.245 876.250 L 772.953 868 756.044 868 C 740.797 868, 739.086 868.172, 738.634 869.750" stroke="none" fill="#000000" fill-rule="evenodd"/>
</svg>