<svg xmlns="http://www.w3.org/2000/svg" width="1024" height="1024" viewBox="0 0 1024 1024" version="1.1">
	<path d="M 755.500 146.053 C 727.628 149.998, 712.333 152.587, 710.031 153.749 C 705.362 156.106, 702 161.313, 702 166.188 C 702 171.329, 705.304 177.605, 709.290 180.035 C 713.471 182.585, 718.142 182.514, 740.500 179.566 C 750.400 178.260, 758.594 177.280, 758.709 177.389 C 758.825 177.497, 718.095 218.407, 668.199 268.301 L 577.479 359.017 521.817 303.328 L 466.154 247.639 459.974 247.192 L 453.794 246.745 341.342 359.122 C 279.494 420.930, 223.178 477.260, 216.195 484.300 L 203.500 497.100 203.500 503.469 C 203.500 508.874, 203.879 510.249, 206 512.548 C 210.512 517.438, 218.348 519.406, 223.316 516.897 C 224.517 516.290, 278.019 463.321, 342.209 399.189 C 406.399 335.057, 459.131 282.791, 459.391 283.042 C 459.652 283.294, 484.307 307.851, 514.182 337.614 C 544.057 367.377, 569.940 392.464, 571.700 393.364 C 575.976 395.550, 580.794 395.423, 584.735 393.020 C 586.514 391.936, 630.795 348.056, 683.137 295.510 C 735.479 242.963, 778.433 200.100, 778.591 200.257 C 778.748 200.415, 777.330 209.260, 775.439 219.913 C 771.363 242.870, 771.258 245.593, 774.270 250.102 C 780.069 258.783, 793.820 259.028, 799.375 250.550 C 800.684 248.552, 808.004 208.868, 814.958 166.066 C 817.278 151.781, 816.798 148.097, 812.017 143.516 C 809.510 141.114, 808.033 140.584, 803.251 140.368 C 800.088 140.225, 778.600 142.783, 755.500 146.053 M 686.898 333.270 C 679.755 338.041, 680.003 335.525, 680.002 403.269 L 680 464.038 677.750 463.580 C 671.615 462.332, 655.998 462.062, 645.380 463.020 C 608.838 466.317, 578.197 481.338, 551.698 508.946 L 542 519.051 542 466.976 C 542 410.637, 542.149 412.265, 536.515 407 L 533.840 404.500 477.170 404.240 C 422.006 403.987, 420.413 404.033, 417.241 405.981 C 415.448 407.081, 413.088 409.448, 411.995 411.241 C 410.032 414.460, 410.007 416.637, 410.004 587.283 L 410 760.066 398.750 759.783 L 387.500 759.500 387 646.330 L 386.500 533.161 384 530.485 C 378.756 524.873, 380.064 525, 327.451 525 C 273.161 525, 274.099 524.888, 269.766 531.856 C 267.541 535.433, 267.495 536.122, 267.252 569.500 C 267.116 588.200, 267.004 609.688, 267.002 617.250 L 267 631 237.404 631 C 204.275 631, 204.028 631.047, 200.094 638.046 C 198.034 641.711, 198 642.738, 198 700.886 L 198 760 185.148 760 C 173.451 760, 171.990 760.204, 168.898 762.270 C 159.765 768.371, 159.999 780.430, 169.385 787.438 L 172.147 789.500 470.421 789.757 L 768.695 790.013 792.740 814.381 C 818.812 840.801, 821.926 843.133, 833.676 845.025 C 858.542 849.030, 881.648 825.186, 877.043 800.272 C 874.656 787.363, 874.176 786.776, 829.336 741.867 L 787.766 700.234 791.827 694.255 C 800.530 681.439, 807.385 665.567, 811.786 648.044 C 814.276 638.127, 814.424 636.222, 814.274 616 C 814.186 604.175, 813.751 537.105, 813.307 466.955 C 812.409 325.055, 813.039 336.145, 805.674 332.649 C 802.573 331.178, 796.163 331, 746.247 331 L 690.296 331 686.898 333.270 M 709 415.270 L 709 469.541 716.548 471.884 C 727.516 475.288, 744.207 483.984, 754.164 491.481 C 763.351 498.398, 776.956 511.172, 781.343 517 L 783.978 520.500 783.989 440.750 L 784 361 746.500 361 L 709 361 709 415.270 M 440 597 L 440 760 476.500 760 L 513 760 512.992 703.750 C 512.987 664.654, 512.623 645.518, 511.797 641 C 511.123 637.315, 510.608 625.404, 510.608 613.500 C 510.608 601.596, 511.123 589.685, 511.797 586 C 512.643 581.368, 512.987 558.589, 512.992 506.750 L 513 434 476.500 434 L 440 434 440 597 M 641.500 492.448 C 611.040 497.210, 584.542 512.805, 564.952 537.500 C 531.541 579.616, 530.563 642.358, 562.634 686.100 C 580.141 709.979, 603.142 725.285, 632.726 732.743 C 642.600 735.233, 645.087 735.457, 662.500 735.431 C 683.317 735.400, 689.670 734.349, 707.010 728.067 C 722.676 722.392, 741.798 709.486, 753.628 696.604 C 802.330 643.567, 795.161 559.701, 738.238 516.573 C 728.212 508.977, 711.356 500.362, 699.004 496.520 C 682.060 491.250, 659.423 489.647, 641.500 492.448 M 646.075 534.027 C 626.454 538.143, 609.705 548.962, 597.355 565.500 C 592.278 572.298, 589.152 578.442, 585.824 588.158 C 582.821 596.928, 582.622 598.387, 582.563 612 C 582.514 623.193, 582.927 628.073, 584.371 633.399 C 588.528 648.730, 595.751 660.675, 607.859 672.243 C 622.467 686.199, 638.199 692.878, 658.500 693.740 C 683.423 694.799, 700.984 687.996, 718.493 670.500 C 739.459 649.550, 747.150 622.364, 740.412 593.028 C 735.995 573.796, 720.094 553.315, 701.500 542.907 C 689.118 535.977, 680.555 533.780, 664.500 533.416 C 656.800 533.242, 648.509 533.517, 646.075 534.027 M 297 657 L 297 760 327.500 760 L 358 760 358 657 L 358 554 327.500 554 L 297 554 297 657 M 647.500 563.867 C 638.394 566.483, 631.480 570.731, 624.927 577.737 C 615.117 588.224, 611 598.805, 611 613.529 C 611 627.779, 616.389 640.701, 626.417 650.500 C 636.903 660.746, 647.539 665, 662.672 665 C 701.014 665, 725.363 625.841, 708.685 591 C 704.700 582.674, 693.763 571.542, 685.829 567.736 C 673.634 561.886, 659.395 560.449, 647.500 563.867 M 227 710.021 L 227 760.041 247.001 759.771 C 258.002 759.622, 267.002 759.163, 267.001 758.750 C 267.001 758.337, 267 735.950, 267 709 L 267 660 247 660 L 227 660 227 710.021 M 542 734.088 L 542 760 580 760 C 600.900 760, 618 759.812, 618 759.582 C 618 759.351, 614.962 758.173, 611.250 756.964 C 600.522 753.469, 585.258 745.735, 575.500 738.851 C 570.550 735.359, 560.987 727.028, 554.250 720.339 L 542 708.176 542 734.088 M 763.040 729.961 L 756.580 735.836 794.646 774.668 C 815.582 796.026, 833.857 814.153, 835.258 814.950 C 837.190 816.051, 838.732 816.171, 841.652 815.450 C 846.410 814.275, 849.734 809.061, 848.602 804.549 C 848.118 802.622, 835.374 789.306, 808.704 762.859 C 787.152 741.487, 769.514 724.020, 769.509 724.044 C 769.504 724.067, 766.593 726.730, 763.040 729.961 M 723.943 752.466 C 720.336 754.318, 715.049 756.598, 712.193 757.532 C 709.337 758.466, 707 759.403, 707 759.615 C 707 759.827, 714.718 760, 724.151 760 L 741.302 760 736.401 754.608 C 733.705 751.642, 731.275 749.189, 731 749.157 C 730.725 749.125, 727.549 750.614, 723.943 752.466" stroke="none" fill="#000000" fill-rule="evenodd"/>
</svg>