<svg xmlns="http://www.w3.org/2000/svg" width="1024" height="1024" viewBox="0 0 1024 1024" version="1.1">
	<path d="M 403 158.673 C 368.092 164.272, 341.217 177.345, 317.162 200.428 C 292.679 223.922, 276.723 253.134, 270.422 286 C 267.779 299.785, 267.993 324.927, 270.869 338.648 C 283.281 397.856, 326.204 443.763, 383.967 459.606 C 424.764 470.796, 470.941 463.405, 507.500 439.834 C 531.715 424.222, 550.129 403.529, 562.972 377.500 C 570.527 362.188, 575.069 348.668, 577.585 334 C 579.599 322.258, 579.049 293.393, 576.603 282.500 C 565.818 234.471, 533.785 195.024, 487.642 172.951 C 465.893 162.547, 444.755 157.907, 420.151 158.136 C 412.093 158.211, 404.375 158.453, 403 158.673 M 397.500 188.011 C 359.150 195.861, 326.923 220.722, 309.411 255.964 C 300.359 274.181, 296.765 289.349, 296.725 309.500 C 296.681 331.513, 300.776 348.101, 311.202 368.147 C 328.845 402.066, 360.814 426.548, 398 434.615 C 409.908 437.198, 436.102 437.197, 448 434.613 C 472.627 429.264, 493.216 418.325, 511.428 400.914 C 530.073 383.089, 541.678 362.648, 548.189 336.158 C 550.737 325.792, 551.273 300.422, 549.154 290.500 C 543.688 264.910, 532.204 244.158, 512.556 224.361 C 492.626 204.280, 471.167 193.092, 441.951 187.550 C 430.640 185.405, 409.144 185.627, 397.500 188.011 M 662.213 471.578 C 636.101 474.934, 605.508 485.567, 585.820 498.132 L 581.140 501.119 573.238 496.635 C 555.513 486.577, 533.271 478.847, 521.431 478.630 C 513.457 478.483, 514.601 477.892, 496.856 491.338 C 475.584 507.457, 451.588 515.171, 422.500 515.242 C 392.558 515.314, 364.454 505.389, 336.025 484.703 L 327.500 478.500 320.500 478.630 C 299.643 479.017, 256.950 498.478, 229 520.340 C 191.998 549.282, 163.708 594.674, 155.047 639 C 151.338 657.981, 151.133 663.616, 151.318 741.500 L 151.500 818.500 154.264 826.657 C 160.612 845.391, 175.862 860.413, 194.500 866.292 L 201.500 868.500 401 868.500 L 600.500 868.500 606.899 866.189 C 615.635 863.034, 624.318 858.580, 631.599 853.518 L 637.697 849.278 648.099 851.636 C 686.949 860.441, 730.687 855.105, 767.500 837.068 C 821.327 810.694, 860.222 762.611, 874.359 704.964 C 883.560 667.445, 880.791 630.665, 865.939 593.104 C 851.365 556.246, 825.807 525.092, 791.146 501.932 C 753.986 477.102, 706.403 465.899, 662.213 471.578 M 676.500 497.674 C 617.427 501.381, 564.987 536.831, 539.498 590.291 C 520.489 630.159, 518.004 671.176, 532.040 713.383 C 548.534 762.984, 589.376 804.117, 638.411 820.512 C 653.648 825.607, 662.509 827.098, 681 827.680 C 695.944 828.150, 700.299 827.923, 710.820 826.125 C 747.355 819.880, 782.980 800.248, 807.774 772.695 C 825.646 752.834, 837.940 730.832, 845.342 705.460 C 849.764 690.305, 851.318 678.927, 851.280 662 C 851.237 643.355, 849.368 631.299, 843.894 614.370 C 825.288 556.824, 779.474 514.926, 720 501.067 C 711.782 499.151, 690.638 496.843, 684.500 497.191 C 682.850 497.284, 679.250 497.502, 676.500 497.674 M 305.111 509.053 C 274.049 519.801, 243.066 541.142, 220.851 567.090 C 200.398 590.981, 187.815 616.491, 181.764 646.333 C 179.525 657.375, 179.500 658.381, 179.500 736.500 L 179.500 815.500 182.135 821.120 C 185.550 828.403, 190.585 833.899, 197.196 837.562 L 202.500 840.500 226.250 840.815 L 250 841.131 250 783.016 C 250 718.980, 249.839 720.686, 256.190 717.402 C 260.308 715.272, 268.270 715.291, 271.547 717.439 C 272.949 718.357, 274.972 720.547, 276.044 722.304 C 277.916 725.374, 277.993 727.772, 277.996 783.262 L 278 841.024 438.250 840.753 C 566.256 840.537, 599.260 840.222, 602.276 839.187 C 604.352 838.475, 605.808 837.498, 605.510 837.016 C 605.212 836.535, 602.326 834.820, 599.095 833.205 C 571.347 819.339, 542.028 791.346, 524.008 761.513 C 494.875 713.282, 488.326 653.933, 506.129 599.500 C 515.195 571.783, 528.803 549.176, 549.969 526.671 C 556.212 520.033, 556.369 519.740, 554.469 518.277 C 549.652 514.567, 528.700 506, 524.446 506 C 523.791 506, 518.556 509.515, 512.813 513.812 C 495.045 527.105, 476.987 535.189, 454 540.143 C 445.132 542.053, 440.391 542.412, 423.500 542.453 C 406.170 542.494, 402.032 542.186, 392.500 540.148 C 368.152 534.942, 350.296 527.423, 329.976 513.821 C 323.063 509.193, 317.314 506.031, 315.896 506.075 C 314.578 506.117, 309.725 507.457, 305.111 509.053 M 678.708 559.027 C 676.622 560.162, 674.036 562.533, 672.961 564.296 C 671.111 567.331, 671.007 569.573, 671.004 606.750 L 671 646 631.750 646.004 C 594.348 646.007, 592.347 646.101, 589.241 647.995 C 581.840 652.507, 579.734 662.201, 584.599 669.360 C 589.076 675.950, 589.439 676, 632.468 676 L 671 676 671 716.550 C 671 759.992, 670.988 759.878, 676.155 764.679 C 677.445 765.877, 680.630 767.391, 683.233 768.043 C 687.543 769.123, 688.391 769.018, 692.731 766.864 C 695.353 765.564, 698.510 762.971, 699.749 761.102 C 701.992 757.717, 702 757.551, 702 716.884 L 702 676.063 743.750 675.782 C 783.703 675.512, 785.615 675.414, 788.182 673.500 C 791.852 670.763, 795 664.922, 795 660.848 C 795 656.334, 792.041 651.008, 788.001 648.250 C 784.713 646.006, 784.592 646, 743.352 646 L 702 646 702 606.950 C 702 564.163, 702.015 564.283, 696.008 560.006 C 691.573 556.848, 683.545 556.393, 678.708 559.027" stroke="none" fill="#000000" fill-rule="evenodd"/>
</svg>