<svg xmlns="http://www.w3.org/2000/svg" width="1024" height="1024" viewBox="0 0 1024 1024" version="1.1">
	<path d="M 93.392 161.576 C 89.144 163.676, 84.502 168.800, 83.134 172.899 C 82.302 175.392, 82.006 233.527, 82.022 390.899 C 82.043 597.649, 82.112 605.646, 83.896 609.500 C 86.051 614.156, 90.313 618.424, 94.315 619.936 C 96.272 620.676, 161.980 621, 309.831 621 L 522.532 621 522.151 632.125 C 520.570 678.326, 536.360 727.238, 565.369 766 C 583.695 790.488, 616.302 816.797, 643.382 828.947 C 670.319 841.033, 694.207 846.546, 724.500 847.670 C 760.778 849.015, 789.533 843.137, 820.500 828.045 C 876.332 800.836, 917.710 751.554, 933.555 693.392 C 939.886 670.153, 942.486 639.924, 940.084 617.500 C 935.003 570.090, 917.650 531.465, 885.182 495.300 L 876.025 485.100 875.762 328.623 C 875.500 172.273, 875.498 172.144, 873.435 169.381 C 872.300 167.860, 869.670 165.240, 867.592 163.558 L 863.814 160.500 480.157 160.270 C 136.800 160.064, 96.173 160.201, 93.392 161.576 M 113.247 390.767 L 113.500 587.034 320.147 587.267 L 526.794 587.500 528.017 582 C 528.690 578.975, 530.311 573.521, 531.620 569.879 C 532.929 566.237, 534 562.975, 534 562.629 C 534 562.283, 463.557 562, 377.460 562 C 223.632 562, 220.853 561.966, 217.055 560.028 C 210.935 556.906, 209.109 554.013, 205.371 541.522 C 203.072 533.836, 195.430 522.434, 188.347 516.121 C 181.707 510.203, 170.938 504.603, 162 502.420 C 153.459 500.334, 148.742 497.164, 146.121 491.750 C 144.004 487.377, 144 487.192, 144.022 390.434 C 144.043 297.370, 144.120 293.333, 145.943 289.316 C 148.578 283.514, 154.036 280.120, 162.640 278.936 C 173.064 277.501, 182.988 272.226, 191.503 263.597 C 199.329 255.666, 203.709 247.828, 206.824 236.181 C 209.003 228.030, 211.533 224.644, 217.500 221.890 C 221.356 220.111, 230.799 220.043, 479.282 220.022 C 709.725 220.002, 737.457 220.164, 740.768 221.548 C 747.892 224.524, 750.734 228.423, 753.398 238.876 C 756.961 252.856, 766.755 266.282, 778.133 272.788 C 783.078 275.615, 786.831 276.820, 800.482 279.968 C 806.320 281.314, 811.298 284.815, 813.751 289.302 C 815.366 292.255, 815.521 298.366, 815.780 369.071 L 816.059 445.642 823.089 449.043 C 826.956 450.914, 833.130 454.341, 836.810 456.660 L 843.500 460.875 843.754 328.275 C 843.893 255.344, 843.858 195.525, 843.675 195.342 C 843.492 195.159, 679.015 194.895, 478.169 194.755 L 112.995 194.500 113.247 390.767 M 232.766 259.761 C 223.865 281.697, 201.404 302.236, 180.019 307.995 L 176 309.077 176 390.958 L 176 472.839 180.750 474.432 C 199.669 480.777, 219.185 498.526, 230.029 519.250 L 235.131 529 392.354 529 L 549.576 529 553.885 522.446 C 564.880 505.723, 583.543 485.603, 601.539 471.072 C 636.517 442.830, 680.847 427.094, 725.644 427.017 C 742.745 426.988, 763.870 429.664, 777.432 433.577 C 780.144 434.360, 782.731 435, 783.182 435 C 783.632 435, 784 406.650, 784 372 C 784 312.672, 783.898 308.999, 782.250 308.987 C 778.132 308.955, 763.670 302.935, 756.870 298.421 C 742.852 289.118, 732.335 276.412, 726.307 261.500 L 723.073 253.500 479.286 253.261 L 235.500 253.021 232.766 259.761 M 470 279.752 C 465.713 281.893, 462 288.724, 462 294.471 L 462 298.518 455.247 300.645 C 440.163 305.398, 425.241 317.583, 419.060 330.197 C 409.631 349.437, 413.974 372.552, 429.732 386.991 C 439.940 396.345, 450.323 400.990, 474.500 407.016 C 485.711 409.810, 497.185 413.316, 500.609 414.994 C 515.001 422.045, 516.859 435.648, 504.898 446.402 C 497.131 453.385, 484.042 456.705, 471.356 454.908 C 457.895 453.002, 449.983 447.265, 444.553 435.472 C 442.772 431.606, 439.927 427.275, 438.229 425.847 C 431.803 420.439, 422.642 421.333, 416.664 427.950 C 412.460 432.603, 411.338 437.314, 412.929 443.631 C 417.352 461.198, 434.993 478.567, 454.919 484.974 L 461.772 487.178 462.193 492.995 C 462.969 503.716, 469.436 509.626, 479.480 508.793 C 488.676 508.031, 494.927 500.994, 494.978 491.347 L 495 487.195 501.750 485.129 C 520.189 479.488, 537.446 463.388, 542.872 446.766 C 550.613 423.050, 542.029 401.573, 519.464 388.197 C 510.801 383.062, 503.011 380.374, 479.466 374.398 C 453.265 367.748, 447.012 363.590, 447.004 352.815 C 446.999 346.603, 448.149 343.879, 452.995 338.621 C 458.754 332.374, 465.369 329.745, 476.687 329.205 C 493.967 328.381, 505.189 334.114, 512.326 347.414 C 516.026 354.307, 520.146 357.001, 526.984 356.998 C 541.151 356.994, 547.142 344.314, 539.750 329.978 C 533.077 317.036, 519.504 306.306, 503.255 301.128 L 495.009 298.500 495.005 294.407 C 494.998 288.871, 491.309 282.171, 486.991 279.855 C 482.588 277.494, 474.616 277.446, 470 279.752 M 705.500 460.143 C 688.670 462.284, 666.722 468.958, 651.109 476.683 C 603.325 500.324, 567.299 546.948, 556.958 598.530 C 554.224 612.170, 553.122 644.718, 554.926 658.542 C 558.794 688.173, 570.578 718.367, 587.981 743.238 C 596.799 755.841, 616.978 775.955, 629.407 784.532 C 649.214 798.200, 673.428 808.300, 698 813.144 C 707.672 815.051, 712.838 815.417, 730.500 815.452 C 748.571 815.487, 753.090 815.171, 762.900 813.187 C 833.628 798.885, 887.240 747.846, 904.378 678.500 C 905.193 675.200, 906.623 667.550, 907.555 661.500 C 909.862 646.520, 909.108 617.956, 906.024 603.500 C 889.820 527.558, 830.496 471.826, 753.872 460.562 C 742.313 458.863, 717.270 458.646, 705.500 460.143 M 666.685 553.017 C 662 554.423, 656.875 559.029, 654.816 563.683 C 653.090 567.586, 652.905 569.985, 653.185 584.882 C 653.496 601.474, 653.535 601.729, 656.339 605.771 C 664.075 616.924, 681.532 616.605, 689.487 605.167 C 692.477 600.866, 692.503 600.715, 692.844 585.201 C 693.057 575.527, 692.761 568.144, 692.067 565.830 C 688.982 555.532, 677.544 549.758, 666.685 553.017 M 782.459 553.824 C 777.552 556.120, 773.435 560.811, 771.949 565.795 C 771.275 568.056, 770.973 575.737, 771.172 585.500 C 771.477 600.354, 771.666 601.733, 773.820 604.752 C 781.209 615.112, 793.488 617.071, 802.124 609.269 C 809.113 602.955, 809.500 601.577, 809.500 583 C 809.500 567.364, 809.373 566.278, 807.074 562.264 C 801.980 553.370, 791.271 549.699, 782.459 553.824 M 711 654.475 C 684.200 658.911, 660.554 670.449, 643.855 687.238 C 634.335 696.810, 630.506 703.924, 631.262 710.635 C 632.915 725.299, 650.784 730.033, 659.828 718.202 C 673.978 699.690, 692.264 689.022, 715.968 685.449 C 728.272 683.594, 735.456 683.628, 747.074 685.598 C 769.196 689.348, 790.792 701.413, 801.505 716.007 C 807.831 724.624, 816.602 727.202, 824.396 722.734 C 831.644 718.578, 833.983 709.727, 830.003 701.507 C 827.096 695.501, 815.475 683.360, 806.388 676.837 C 792.597 666.936, 775.440 659.418, 757.500 655.415 C 747.644 653.216, 721.767 652.693, 711 654.475" stroke="none" fill="#000000" fill-rule="evenodd"/>
</svg>