<svg xmlns="http://www.w3.org/2000/svg" width="1024" height="1024" viewBox="0 0 1024 1024" version="1.1">
	<path d="M 242.601 128.588 C 222.278 133.525, 205.355 150.674, 200.504 171.246 C 199.220 176.690, 199.028 220.419, 199.015 509.020 L 199 840.540 201.072 848.017 C 202.211 852.129, 204.349 857.745, 205.822 860.497 C 209.518 867.402, 221.229 878.838, 228.581 882.724 C 241.325 889.458, 224.563 889, 458.161 889 C 611.229 889, 671.370 888.688, 675.201 887.875 C 688.229 885.108, 687.968 885.335, 752.784 820.656 C 785.940 787.570, 814.618 758.250, 816.513 755.500 C 818.408 752.750, 820.874 747.824, 821.993 744.554 C 824.020 738.630, 824.027 737.600, 824.007 457.823 C 823.993 260.031, 823.666 175.480, 822.903 171.769 C 819.280 154.168, 804.337 137.150, 786.379 130.173 L 779.500 127.500 514 127.328 C 286.517 127.180, 247.655 127.361, 242.601 128.588 M 246.882 157.377 C 240.966 159.497, 235.994 163.026, 232.895 167.304 C 226.541 176.074, 227 149.493, 227 509 C 227 871.384, 226.450 842.493, 233.503 850.733 C 235.455 853.013, 239.627 856.143, 242.776 857.689 L 248.500 860.500 454.750 860.759 L 661 861.019 661 806.691 C 661 745.762, 661.008 745.680, 667.869 737.887 C 670.001 735.464, 673.941 732.360, 676.623 730.991 L 681.500 728.500 738.759 728.226 L 796.018 727.952 795.759 452.226 L 795.500 176.500 793.298 172.384 C 789.914 166.058, 786.658 162.681, 780.833 159.454 L 775.500 156.500 513 156.290 C 300.070 156.120, 249.817 156.325, 246.882 157.377 M 315.304 297.956 C 308.203 302.286, 306.175 310.211, 310.347 317.329 C 315.251 325.696, 296.935 325, 512.070 325 C 721.874 325, 705.890 325.484, 711.381 318.959 C 715.120 314.516, 715.120 306.484, 711.381 302.041 C 705.890 295.515, 722.001 296, 510.800 296.004 C 321.957 296.007, 318.443 296.043, 315.304 297.956 M 319.721 383.812 C 317.005 384.036, 314.980 385.086, 312.519 387.547 C 305.262 394.805, 307.394 406.760, 316.636 410.621 C 321.623 412.705, 701.794 412.679, 705.800 410.595 C 715.798 405.393, 716.836 391.525, 707.676 385.523 C 705.491 384.092, 686.699 383.917, 514.378 383.719 C 409.395 383.599, 321.800 383.640, 319.721 383.812 M 316.418 472.969 C 313.261 474.246, 309.157 479.645, 308.441 483.464 C 307.590 488.001, 309.368 493.020, 313.089 496.585 L 316.131 499.500 510.101 499.758 C 683.996 499.988, 704.382 499.854, 707.079 498.459 C 716.016 493.838, 716.386 479.255, 707.701 473.960 C 704.555 472.041, 701.214 472.008, 511.500 472.067 C 405.350 472.100, 317.563 472.506, 316.418 472.969 M 318.500 559.733 C 309.422 562.006, 305.217 574.921, 311.115 582.419 C 315.822 588.404, 301.367 588, 511.049 588 C 681.653 588, 703.551 587.828, 706.349 586.467 C 710.898 584.254, 713.305 580.397, 713.772 574.570 C 714.261 568.465, 711.466 563.508, 705.980 560.752 C 702.701 559.104, 691.479 559.010, 511.500 559.118 C 406.450 559.181, 319.600 559.457, 318.500 559.733 M 316.071 649.752 C 306.116 654.828, 305.477 668.436, 314.898 674.730 L 318.296 677 455.688 677 C 588.826 677, 593.195 676.941, 596.790 675.095 C 601.682 672.583, 604 668.429, 604 662.172 C 604 658.284, 603.439 656.487, 601.512 654.196 C 595.924 647.556, 606.365 648, 455.849 648.002 C 328.015 648.003, 319.286 648.112, 316.071 649.752 M 689 801.167 C 689 826.008, 689.112 846.133, 689.250 845.888 C 689.388 845.644, 709.518 825.319, 733.985 800.722 L 778.470 756 733.735 756 L 689 756 689 801.167" stroke="none" fill="#000000" fill-rule="evenodd"/>
</svg>