<svg xmlns="http://www.w3.org/2000/svg" width="1024" height="1024" viewBox="0 0 1024 1024" version="1.1">
	<path d="M 403 158.673 C 366.224 164.572, 338.395 178.580, 313.738 203.607 C 289.173 228.541, 274.357 258.597, 269.918 292.500 C 268.112 306.299, 269.278 330.979, 272.358 344.145 C 276.973 363.876, 286.192 383.916, 298.140 400.190 C 307.415 412.823, 325.616 430.298, 338.500 438.940 C 372.369 461.657, 410.344 470.305, 448.125 463.903 C 492.349 456.409, 529.744 432.181, 554.589 394.923 C 579.549 357.495, 586.855 312.082, 574.610 270.479 C 563.470 232.631, 534.732 197.198, 499 177.253 C 484.076 168.923, 464.218 162.295, 445.757 159.484 C 436.864 158.130, 409.612 157.613, 403 158.673 M 410 186.625 C 378.286 190.655, 352.278 203.341, 331.921 224.710 C 309.410 248.339, 297.833 276.494, 297.674 308 C 297.534 335.641, 304.244 358.051, 319.556 381.085 C 326 390.778, 340.948 406.204, 350.647 413.172 C 366.071 424.250, 385.963 432.515, 404.543 435.564 C 416.520 437.529, 438.413 437.008, 450 434.482 C 497.289 424.175, 536.268 387.145, 548.055 341.330 C 554.863 314.873, 552.020 286.393, 540.074 261.370 C 517.969 215.069, 476.818 188.320, 425 186.569 C 418.675 186.355, 411.925 186.380, 410 186.625 M 659 473.472 C 633.541 477.224, 609.446 485.698, 589.732 497.834 C 586.010 500.125, 582.698 502, 582.371 502 C 582.045 502, 578.034 499.739, 573.458 496.975 C 559.054 488.274, 538.885 480.279, 526.825 478.489 C 520.355 477.529, 516.870 478.924, 505.424 487.054 C 479.044 505.792, 452.693 514.343, 421.500 514.290 C 392.665 514.242, 366.892 505.608, 337.618 486.190 C 331.633 482.220, 325.570 478.679, 324.143 478.321 C 315.800 476.227, 284.378 486.627, 262.500 498.724 C 206.834 529.502, 169.425 577.128, 155.957 634.364 C 151.315 654.091, 151.040 659.997, 151.020 740.590 C 151.001 813.127, 151.092 817.041, 152.975 824.404 C 154.062 828.652, 156.411 834.912, 158.195 838.314 C 162.384 846.301, 173.647 857.633, 182.031 862.295 C 194.995 869.505, 179.186 869.048, 405.791 868.760 L 609.688 868.500 619.094 863.813 C 624.267 861.236, 631.331 856.835, 634.790 854.035 L 641.080 848.943 651.790 851.023 C 682.112 856.912, 717.994 854.936, 746 845.836 C 756.850 842.310, 773.853 834.248, 785.997 826.869 C 831.219 799.394, 862.704 756.960, 875.473 706.277 C 878.550 694.065, 880.013 680.447, 880.036 663.825 C 880.070 638.659, 876.734 619.690, 868.285 597 C 846.158 537.581, 792.864 491.199, 730 476.651 C 710.377 472.109, 678.062 470.663, 659 473.472 M 662.500 501.066 C 652.749 502.381, 636.941 506.427, 627.813 509.942 C 617.455 513.931, 611.106 517.204, 601 523.763 C 563.144 548.335, 536.340 587.203, 526.804 631.352 C 523.879 644.898, 523.596 677.414, 526.280 691.789 C 532.716 726.272, 549.031 755.662, 575.941 781.249 C 590.514 795.105, 607.600 806.412, 625.352 813.948 C 646.633 822.982, 667.386 826.598, 692.777 825.699 C 719.802 824.741, 738.882 819.769, 763 807.399 C 779.358 799.009, 793.923 788.035, 807.500 773.870 C 828.806 751.640, 841.432 728.169, 848.592 697.477 C 851.174 686.409, 851.388 683.905, 851.416 664.500 C 851.449 641.330, 850.371 633.425, 844.809 616.064 C 836.698 590.741, 824.802 570.610, 806.418 551.094 C 783.881 527.169, 752.191 509.855, 718.151 502.871 C 706.947 500.572, 674.065 499.506, 662.500 501.066 M 304.187 509.481 C 279.407 518.479, 254.351 534.064, 235.122 552.442 C 206.880 579.433, 189.502 610.149, 181.774 646.734 C 179.517 657.418, 179.500 658.109, 179.500 737.500 L 179.500 817.500 182.161 822.540 C 185.405 828.686, 192.537 835.440, 198.824 838.320 C 203.086 840.272, 205.557 840.494, 226.750 840.824 L 250 841.187 250 783.462 C 250 727.298, 250.055 725.648, 252.019 722.469 C 256.447 715.305, 267.146 714.358, 273.886 720.534 L 277.500 723.845 277.773 782.423 L 278.047 841 439.474 841 C 594.613 841, 611.048 840.729, 610.983 838.167 C 610.974 837.800, 608.391 836.384, 605.244 835.021 C 596.674 831.308, 580.379 821.243, 570.692 813.679 C 536.167 786.719, 513.236 753.134, 502.975 714.500 C 490.433 667.275, 495.352 619.368, 517.195 576 C 525.611 559.292, 534.452 546.831, 547.750 532.937 C 553.388 527.047, 558 521.966, 558 521.645 C 558 520.610, 547.725 514.559, 539.500 510.750 C 526.460 504.712, 526.729 504.688, 515.351 512.903 C 496.972 526.172, 476.405 535.306, 454 540.150 C 445.005 542.095, 440.562 542.420, 423 542.420 C 399.722 542.420, 390.926 541.030, 369.888 534.026 C 355.367 529.193, 344.849 523.957, 329.423 513.885 C 322.781 509.548, 316.481 506.022, 315.423 506.050 C 314.366 506.077, 309.309 507.621, 304.187 509.481 M 682.020 533.752 C 680.106 534.713, 677.518 537.029, 676.270 538.898 C 674.277 541.882, 674 543.552, 674 552.603 L 674 562.909 670.250 563.515 C 647.143 567.243, 628.953 582.685, 622.953 603.665 C 620.074 613.733, 620.265 629.299, 623.377 638.113 C 626.379 646.619, 631.744 654.652, 638.620 660.936 C 645.131 666.886, 659.059 674.103, 667.750 676.028 L 674 677.413 674 709.274 L 674 741.135 671.750 740.471 C 661.926 737.573, 652.725 730.361, 649.675 723.169 C 648.819 721.151, 647.223 717.375, 646.127 714.777 C 643.401 708.311, 639.230 705.761, 632.228 706.278 C 618.761 707.274, 615.518 720.776, 624.597 738.052 C 632.525 753.141, 649.673 764.674, 671.250 769.432 C 673.934 770.024, 674 770.208, 674 777.118 C 674 788.095, 676.982 792.828, 685.315 795.081 C 690.204 796.402, 694.667 795, 698.585 790.912 C 701.280 788.100, 701.526 787.206, 701.845 779.047 L 702.191 770.223 708.345 769.027 C 722.232 766.330, 737.270 757.563, 744.704 747.831 C 753.397 736.452, 757 725.805, 757 711.500 C 757 695.218, 752.870 684.888, 742 673.984 C 733.161 665.116, 721.630 659.287, 703.250 654.395 C 701.380 653.898, 701.433 593, 703.304 593 C 704.021 593, 706.936 594.160, 709.781 595.578 C 716.657 599.005, 723.401 606.652, 726.117 614.102 C 729.209 622.580, 733.357 626, 740.549 626 C 745.350 626, 746.474 625.593, 749.613 622.716 C 752.461 620.105, 753.304 618.481, 753.719 614.802 C 755.491 599.082, 741.668 578.124, 724 569.741 C 719.875 567.784, 713.275 565.415, 709.333 564.477 L 702.166 562.770 701.833 551.448 C 701.510 540.480, 701.408 540.030, 698.557 537.057 C 695.865 534.250, 690.756 532.017, 687 532.007 C 686.175 532.005, 683.934 532.790, 682.020 533.752 M 665.500 595.378 C 654.905 600.374, 649.052 609.125, 649.031 620 C 649.021 625.378, 649.526 627.385, 651.959 631.626 C 653.576 634.445, 656.676 638.159, 658.847 639.879 C 662.850 643.049, 670.465 646.938, 672.750 646.978 C 673.720 646.995, 674 640.945, 674 620 C 674 589.330, 674.605 591.083, 665.500 595.378 M 702.551 684.783 C 702.248 685.085, 702 697.907, 702 713.275 L 702 741.217 704.750 740.550 C 712.576 738.654, 722.424 730.871, 726.168 723.622 C 729.129 717.889, 729.665 710.029, 727.483 704.317 C 725.474 699.056, 719.182 691.699, 714.552 689.197 C 709.755 686.605, 703.156 684.177, 702.551 684.783" stroke="none" fill="#000000" fill-rule="evenodd"/>
</svg>