<svg xmlns="http://www.w3.org/2000/svg" width="1024" height="1024" viewBox="0 0 1024 1024" version="1.1">
	<path d="M 404.201 159.549 C 361.647 165.018, 316.508 186.745, 286.182 216.355 C 264.559 237.467, 246.188 265.554, 237.030 291.500 C 233.100 302.636, 228.086 323.278, 227.320 331.474 L 226.747 337.609 220.219 340.994 C 211.994 345.258, 201.572 355.560, 197.225 363.723 C 190.801 375.787, 190 381.592, 190 416.095 C 190 450.146, 190.742 456.519, 195.970 467.390 C 202.608 481.193, 215.513 492.276, 230.500 497.045 C 233.019 497.846, 243.516 498.536, 258.844 498.909 L 283.187 499.500 285.449 505.065 C 294.628 527.646, 309.840 551.435, 325.788 568.148 L 332.132 574.796 328.910 581.148 C 327.137 584.642, 324.693 589.929, 323.476 592.899 L 321.265 598.297 307.383 602.562 C 299.747 604.907, 286.525 608.924, 278 611.488 C 242.753 622.088, 221.521 629.699, 207.429 636.784 C 176.093 652.540, 153.239 677.649, 143.522 707 C 137.711 724.553, 137.751 724.053, 137.286 785.206 C 136.864 840.693, 136.901 842.080, 138.989 849.706 C 142.670 863.150, 150.367 872.345, 163 878.390 L 169.500 881.500 430 881.765 C 688.333 882.028, 690.555 882.014, 697.129 880.023 C 714.331 874.815, 725.492 860.468, 727.020 841.601 C 727.987 829.650, 727.930 757.856, 726.940 742.500 C 724.783 709.015, 714.155 683.540, 693.335 661.942 C 673.724 641.598, 650.859 630.034, 604.420 616.972 C 572.974 608.127, 545.659 600.201, 542.551 599.019 C 539.946 598.029, 535.526 589.962, 530.716 577.419 L 529.152 573.339 538.105 563.419 C 551.178 548.937, 562.898 531.749, 571.634 514.250 L 579.248 499 599.874 498.985 C 614.496 498.975, 622.318 498.542, 626.745 497.498 C 648.725 492.316, 665.765 474.508, 670.561 451.709 C 672.554 442.238, 672.519 393.802, 670.511 382.536 C 667.826 367.461, 658.322 352.729, 645.224 343.337 C 641.264 340.498, 637.609 338.023, 637.101 337.837 C 636.593 337.652, 635.207 331.733, 634.022 324.684 C 626.496 279.933, 609.587 247.209, 578.333 216.912 C 550.905 190.324, 516.938 172.170, 478.348 163.475 C 455.508 158.328, 425.896 156.760, 404.201 159.549 M 759.500 172.622 C 716.130 177.266, 676.817 198.603, 654.175 229.786 C 649.673 235.986, 642.565 250.965, 640.549 258.500 C 638.059 267.804, 637.472 284.028, 639.280 293.534 C 644.591 321.453, 663.694 347.383, 691.561 364.499 C 695.928 367.180, 699.671 369.499, 699.880 369.650 C 700.089 369.802, 698.847 375.455, 697.121 382.213 C 695.396 388.971, 693.995 396.300, 694.008 398.500 C 694.041 403.805, 697.666 410.054, 702.015 412.301 C 712.950 417.951, 738.674 408.892, 763.202 390.753 L 770.531 385.332 784.572 384.694 C 836.139 382.348, 879.875 359.203, 900.926 323.120 C 910.889 306.043, 915.184 287.077, 913.025 269.700 C 909.190 238.840, 890.073 212.043, 858.755 193.629 C 835.136 179.743, 810.873 173.166, 781 172.553 C 771.375 172.355, 761.700 172.387, 759.500 172.622 M 399 187.970 C 370.757 193.137, 344.488 204.229, 322.794 220.150 C 309.769 229.708, 290.653 249.610, 282.115 262.500 C 273.481 275.536, 266.422 289.706, 261.653 303.574 C 258.243 313.495, 253.602 332.936, 254.445 333.778 C 254.682 334.015, 259.517 334.446, 265.189 334.735 L 275.502 335.262 278.377 326.381 C 284.414 307.724, 295.417 289.400, 309.932 273.830 C 333.752 248.278, 362.320 231.795, 396 224.170 C 406.465 221.800, 409.480 221.563, 429.500 221.533 C 448.881 221.504, 452.809 221.780, 462.500 223.849 C 478.635 227.296, 488.054 230.469, 501.500 236.992 C 529.191 250.423, 551.319 269.442, 567.245 293.500 C 575.024 305.250, 577.568 310.316, 582.059 322.992 L 585.775 333.484 596.638 333.145 C 602.612 332.959, 607.661 332.651, 607.858 332.461 C 608.055 332.272, 607.281 327.860, 606.136 322.658 C 590.785 252.854, 541.327 204.907, 468.659 189.380 C 457.979 187.098, 453.642 186.738, 433 186.416 C 413.037 186.104, 407.920 186.338, 399 187.970 M 763.500 199.585 C 761.850 199.821, 756.965 200.492, 752.643 201.077 C 720.359 205.448, 688.681 224.576, 674.724 248.128 C 662.499 268.754, 663.243 294.413, 676.654 314.686 C 684.123 325.977, 699.784 338.970, 715 346.499 C 727.927 352.895, 730.332 359.127, 725.961 374.898 C 724.840 378.945, 724.138 382.472, 724.402 382.736 C 725.020 383.354, 734.654 377.527, 748.175 368.357 C 760.094 360.273, 762.439 359.448, 776 358.558 C 800.211 356.970, 817.975 353.039, 835.297 345.435 C 858.563 335.223, 876.956 316.465, 883.282 296.500 C 886.423 286.587, 886.354 270.240, 883.132 261 C 876.326 241.484, 859.297 223.681, 836.500 212.246 C 828.205 208.085, 813.204 203.332, 802.683 201.531 C 793.823 200.015, 769.099 198.787, 763.500 199.585 M 406.500 249.587 C 396.536 251.463, 377.235 257.843, 369.102 261.948 C 348.277 272.461, 330.365 288.632, 317.236 308.774 C 307.620 323.526, 301.610 340.182, 298.305 361.235 C 296.121 375.151, 295.831 420.414, 297.817 437.500 C 301.989 473.401, 312.324 502.959, 329.849 529.115 C 352.885 563.494, 388.925 585.753, 424.741 587.723 C 457.614 589.531, 487.091 576.749, 514.949 548.609 C 520.145 543.359, 524.195 538.888, 523.949 538.673 C 523.702 538.457, 520.800 538.630, 517.500 539.056 C 514.200 539.483, 507.675 539.879, 503 539.937 L 494.500 540.043 491.756 543.923 C 488.286 548.830, 481.089 553.628, 474.190 555.633 C 469.950 556.866, 465.076 557.104, 450.671 556.782 C 430.116 556.323, 427.215 555.541, 418.966 548.229 C 401.725 532.947, 405.481 507.766, 426.543 497.425 L 432.500 494.500 453 494.500 C 473.001 494.500, 473.635 494.563, 479.057 497.106 C 484.630 499.720, 490.709 504.947, 494.564 510.441 L 496.628 513.382 509.564 513.304 C 532.227 513.167, 541.891 509.429, 548.638 498.191 C 555.764 486.320, 562.725 460.838, 564.922 438.576 C 566.269 424.926, 566.299 381.668, 564.970 369.048 C 562.716 347.647, 556.777 328.549, 547.707 313.535 C 528.053 281.002, 498.067 260.036, 458.089 250.874 C 446.287 248.169, 417.801 247.458, 406.500 249.587 M 591.747 360.750 C 591.543 361.163, 591.798 369.825, 592.313 380 C 593.491 403.259, 591.838 442.666, 589.020 458.500 C 587.944 464.550, 587.049 470.101, 587.031 470.836 C 587.006 471.911, 590.179 472.106, 603.250 471.836 C 618.681 471.517, 619.787 471.359, 625.203 468.700 C 632.304 465.212, 639.136 457.776, 642.196 450.202 C 644.404 444.739, 644.500 443.370, 644.500 417.500 C 644.500 386.572, 643.841 382.774, 636.970 374.082 C 629.160 364.201, 618.903 360, 602.591 360 C 596.831 360, 591.951 360.337, 591.747 360.750 M 241.332 362.959 C 232.871 364.975, 224.590 372.383, 220.101 381.954 L 217.500 387.500 217.500 416.500 C 217.500 444.384, 217.588 445.717, 219.783 451.147 C 222.836 458.696, 228.532 464.937, 235.648 468.531 C 241.330 471.399, 241.992 471.495, 258.393 471.829 L 275.287 472.173 274.702 468.337 C 274.381 466.226, 273.090 458.200, 271.834 450.500 C 269.752 437.734, 269.548 433.217, 269.525 399.250 L 269.500 362 257 362.102 C 250.125 362.159, 243.074 362.544, 241.332 362.959 M 441 521.782 C 436.066 522.590, 434.408 526.071, 437.750 528.608 C 440.438 530.648, 463.819 530.516, 466.777 528.443 C 469.405 526.603, 469.610 524.751, 467.390 522.908 C 465.818 521.604, 446.997 520.801, 441 521.782 M 502.963 593.340 C 489.727 602.184, 471.132 609.543, 454.500 612.519 C 433.872 616.210, 405.352 614.037, 386.766 607.357 C 379.427 604.720, 362.389 596.370, 358.262 593.389 C 356.043 591.786, 355.985 591.853, 351.395 601.348 L 346.765 610.923 349.410 615.437 C 357.348 628.982, 373.489 646.508, 385.577 654.709 C 420.229 678.215, 458.502 674.246, 490.558 643.821 C 497.993 636.764, 507.698 625.095, 513.476 616.264 L 516.247 612.028 513.517 606.264 C 512.015 603.094, 510.092 598.700, 509.243 596.500 C 507.071 590.873, 506.834 590.753, 502.963 593.340 M 320.811 626.522 C 320.524 626.809, 304.362 631.955, 284.895 637.958 C 265.428 643.961, 246.350 649.974, 242.500 651.320 C 203.970 664.790, 180.022 685.892, 169.915 715.278 C 164.402 731.305, 164 736.505, 164 791.815 C 164 840.325, 164.081 842.536, 166 846.500 C 167.320 849.227, 169.445 851.459, 172.250 853.066 L 176.500 855.500 210 855.500 L 243.500 855.500 244 824 C 244.372 800.591, 244.837 791.908, 245.814 790.196 C 249.005 784.601, 258.697 782.241, 265.033 785.517 C 271.200 788.706, 271.469 790.266, 271.803 824.750 L 272.105 856 475.916 856 C 606.158 856, 681.610 855.643, 684.944 855.011 C 691.087 853.846, 695.361 851.066, 697.765 846.671 C 699.351 843.773, 699.500 838.890, 699.500 790 C 699.500 731.225, 699.332 729.186, 693.057 711.995 C 683.694 686.338, 663.039 666.562, 633.817 655.275 C 623.269 651.201, 616.357 649.089, 567.500 635.013 C 540.328 627.184, 539.456 627.002, 538 628.853 C 537.175 629.902, 533.575 634.954, 530 640.080 C 516.169 659.909, 497.981 675.957, 478.500 685.521 C 465.410 691.946, 456.340 694.578, 441.871 696.147 C 399.248 700.770, 357.817 678.041, 328.133 633.750 C 323.232 626.437, 322.057 625.277, 320.811 626.522" stroke="none" fill="#000000" fill-rule="evenodd"/>
</svg>