<svg xmlns="http://www.w3.org/2000/svg" width="1024" height="1024" viewBox="0 0 1024 1024" version="1.1">
	<path d="M 103.970 175.250 C 98.322 178.103, 95.387 182.519, 94.684 189.222 C 94.379 192.125, 94.266 290.866, 94.433 408.647 L 94.737 622.795 97.118 627.147 C 98.776 630.176, 100.857 632.184, 103.962 633.750 L 108.424 636 317.212 636 L 526 636 526 649.394 C 526 672.904, 528.741 691.848, 534.939 711.167 C 552.478 765.836, 594.439 811.837, 647.360 834.411 C 672.660 845.204, 697.821 850.182, 727 850.168 C 760.556 850.152, 785.555 844.288, 814.898 829.551 C 834.091 819.912, 849.455 808.625, 866.621 791.554 C 895.118 763.214, 914.670 727.247, 921.875 689.910 C 933.934 627.421, 916.866 565.392, 874.629 518.212 L 869 511.924 868.956 350.212 C 868.909 178.395, 869.063 184.098, 864.345 178.793 C 863.330 177.651, 860.700 175.891, 858.500 174.881 C 854.641 173.109, 841.308 173.043, 481.462 173.022 L 108.424 173 103.970 175.250 M 126 405 L 126 605 328.265 605 L 530.531 605 534.298 592.750 C 536.370 586.013, 538.328 579.712, 538.649 578.750 C 539.204 577.089, 531.599 576.999, 388.367 576.978 C 242.468 576.957, 237.363 576.894, 233.328 575.062 C 227.906 572.600, 226.210 569.839, 223.346 558.810 C 220.366 547.338, 216.313 540.239, 208.034 531.990 C 200.168 524.153, 190.332 518.731, 178.773 515.862 C 168.732 513.370, 164.605 510.799, 161.966 505.395 C 159.996 501.359, 159.966 499.611, 160.231 402.718 C 160.498 304.931, 160.516 304.124, 162.562 301.385 C 166.075 296.679, 169.322 294.950, 178.347 292.978 C 191.146 290.181, 198.961 286.062, 207.607 277.555 C 215.956 269.340, 220.665 260.711, 223.899 247.699 C 226.318 237.965, 228.035 235.314, 233.487 232.903 C 237.705 231.037, 243.534 230.998, 483.653 231.246 C 723.629 231.494, 729.575 231.546, 732.656 233.410 C 736.153 235.527, 740 241.576, 740 244.960 C 740 248.914, 744.969 262.047, 748.630 267.771 C 753.395 275.219, 761.608 282.979, 768.761 286.792 C 774.212 289.697, 784.960 293.073, 793.072 294.428 C 796.935 295.072, 802.634 299.908, 804.111 303.792 C 804.603 305.086, 805 342.395, 805 387.342 L 805 468.554 813.750 472.863 C 818.563 475.233, 825.711 479.159, 829.636 481.586 C 833.561 484.014, 837.048 486, 837.386 486 C 837.724 486, 838 422.775, 838 345.500 L 838 205 482 205 L 126 205 126 405 M 249.719 269.500 C 245.515 280.541, 240.143 288.777, 231.421 297.556 C 221.840 307.198, 209.465 315.177, 199.259 318.291 L 192.019 320.500 192.009 404.670 L 192 488.839 197.250 490.559 C 210.790 494.993, 223.174 503.114, 233.881 514.580 C 239.527 520.626, 242.305 524.772, 246.819 533.889 C 249.980 540.275, 253.114 545.455, 253.783 545.400 C 254.453 545.345, 322.621 545.232, 405.269 545.150 L 555.538 545 562.019 535.807 C 569.756 524.833, 587.269 506.341, 598.446 497.344 C 635.563 467.468, 676.605 453, 724.237 453 C 740.358 453, 761.076 455.431, 772.250 458.633 C 773.905 459.107, 774 455.355, 774 389.756 L 774 320.378 768.750 319.048 C 753.494 315.184, 737.341 304.094, 726.573 290.092 C 722.307 284.544, 715.771 272.529, 713.584 266.211 L 712.445 262.921 482.414 262.711 L 252.384 262.500 249.719 269.500 M 478.500 283.900 C 472.790 286.416, 470 292.601, 470 302.743 C 470 308.562, 469.843 309, 467.753 309 C 466.518 309, 462.044 310.153, 457.811 311.563 C 432.288 320.063, 416.844 343.665, 420.867 368.024 C 422.593 378.476, 426.214 385.400, 433.927 393 C 443.093 402.031, 454.083 407.224, 477.500 413.589 C 509.151 422.193, 518.782 426.787, 522.870 435.231 C 525.713 441.105, 525.573 446.457, 522.410 452.805 C 515.653 466.365, 495.287 473.790, 475.866 469.774 C 460.355 466.567, 452.200 460.300, 447.487 447.965 C 445.404 442.514, 443.986 440.383, 441.168 438.468 C 434.213 433.742, 424.543 435.915, 419.929 443.241 C 417.036 447.834, 417.866 454.932, 422.397 464.353 C 429.612 479.353, 446.127 491.913, 463.209 495.389 L 469.500 496.669 470.143 504.085 C 470.937 513.245, 471.970 515.956, 475.943 519.299 C 481.357 523.854, 488.329 524.038, 494.302 519.785 C 498.320 516.924, 500 512.310, 500 504.139 C 500 496.950, 500.578 496, 504.954 496 C 509.328 496, 523.040 490.558, 529.242 486.361 C 557.978 466.914, 563.360 433.153, 541.249 411.042 C 530.850 400.643, 522.056 396.690, 486.674 386.506 C 461.418 379.237, 453.777 374.875, 451.193 366.250 C 448.463 357.137, 450.773 350.087, 458.878 342.799 C 466.094 336.311, 471.886 334.485, 485 334.561 C 504.907 334.676, 514.357 341.289, 521.091 359.815 C 525.062 370.737, 544.086 370.748, 547.686 359.829 C 550.221 352.143, 544.982 337.648, 536.098 327.765 C 528.498 319.310, 514.659 311.483, 503.750 309.470 L 500 308.777 500 301.857 C 500 289.498, 495.789 283.828, 486.236 283.322 C 483.081 283.155, 479.600 283.415, 478.500 283.900 M 699.658 484.504 C 636.086 494.862, 583.437 538.915, 564.083 597.943 C 558.056 616.323, 556.511 627.118, 556.560 650.500 C 556.599 669.499, 556.865 672.737, 559.354 684.479 C 562.786 700.673, 565.750 709.618, 572.117 723 C 591.908 764.591, 629.531 797.504, 673.799 811.950 C 692.643 818.100, 702.343 819.501, 726 819.490 C 743.321 819.482, 748.245 819.129, 757.755 817.209 C 785.251 811.660, 809.938 800.127, 831.888 782.579 C 841.417 774.960, 856.432 758.901, 864.261 747.954 C 867.980 742.754, 873.900 732.650, 877.416 725.500 C 888.700 702.559, 893.605 683.755, 894.631 659.500 C 895.934 628.702, 890.636 603.160, 877.416 576.500 C 868.834 559.194, 859.992 546.998, 845.500 532.474 C 831.394 518.337, 819.047 509.320, 802.500 501.070 C 787.725 493.703, 776.370 489.728, 760.612 486.405 C 745.197 483.154, 713.928 482.178, 699.658 484.504 M 718.407 520.572 C 716.705 521.411, 714.343 523.825, 713.157 525.935 C 711.181 529.450, 711 531.211, 711 546.886 C 711 556.299, 710.722 564, 710.382 564 C 710.043 564, 706.330 560.921, 702.132 557.157 C 691.901 547.984, 689.936 546.833, 684.500 546.833 C 676.712 546.833, 671.667 551.813, 671.667 559.500 C 671.667 561.888, 672.377 564.926, 673.245 566.252 C 674.113 567.577, 682.932 575.825, 692.842 584.580 L 710.860 600.500 710.930 613.750 L 711 627 704.250 626.953 L 697.500 626.905 682.931 613.703 C 652.236 585.888, 642.711 577.459, 640.641 576.285 C 637.648 574.588, 630.463 574.709, 626.967 576.517 C 620.830 579.691, 618.850 590.307, 623.393 595.673 C 624.709 597.228, 632.810 604.800, 641.394 612.500 L 657.001 626.500 633.203 627 C 606.625 627.558, 605.760 627.772, 602.536 634.564 C 599.495 640.974, 601.728 648.807, 607.717 652.736 C 610.023 654.250, 613.663 654.571, 633.347 655 L 656.288 655.500 639.181 670.754 C 620.526 687.390, 618.962 689.656, 621.014 697.088 C 623.041 704.431, 631.980 708.954, 639 706.190 C 640.375 705.648, 653.964 693.909, 669.198 680.103 L 696.896 655 703.948 655 L 711 655 710.956 669.750 L 710.912 684.500 692.320 700.952 C 672.761 718.260, 670.288 721.405, 671.559 727.354 C 673.130 734.707, 678.150 739, 685.179 739 C 689.298 739, 691.111 737.801, 702.250 727.710 L 711 719.784 711 738.424 C 711 758.551, 711.573 761.500, 716.338 765.894 C 719.777 769.064, 727.394 769.882, 731.879 767.563 C 738.354 764.214, 738.992 761.765, 738.996 740.250 C 738.998 729.663, 739.259 721, 739.575 721 C 739.891 721, 743.742 724.263, 748.133 728.250 C 752.523 732.237, 757.740 736.337, 759.724 737.359 C 766.996 741.106, 775.684 737.125, 778.142 728.920 C 780.207 722.027, 778.505 719.575, 760.360 703.312 C 751.271 695.166, 742.747 687.583, 741.417 686.462 C 739.063 684.478, 739 684.043, 739 669.712 L 739 655 746.597 655 L 754.194 655 760.847 661.274 C 764.506 664.725, 772.450 672.039, 778.500 677.527 C 812.990 708.815, 810.641 707.002, 816.684 706.996 C 826.098 706.987, 832.455 697.588, 829.070 688.683 C 828.558 687.337, 820.233 679.151, 810.570 670.492 C 800.906 661.832, 793 654.692, 793.001 654.624 C 793.002 654.556, 803.485 654.500, 816.297 654.500 C 837.066 654.500, 839.890 654.304, 842.344 652.696 C 848.690 648.534, 850.866 639.573, 847.050 633.314 C 843.675 627.779, 842.547 627.543, 816.850 627 L 793.200 626.500 810.216 611.095 C 821.470 600.906, 827.727 594.503, 828.697 592.184 C 830.783 587.191, 829.604 582.306, 825.344 578.288 C 822.322 575.438, 821.164 575, 816.651 575 C 813.372 575, 810.530 575.633, 808.973 576.709 C 806.037 578.738, 758.350 621.750, 755.595 624.854 C 753.973 626.681, 752.599 627, 746.345 627 L 739 627 739 614.119 L 739 601.239 758.458 583.602 C 774.875 568.721, 778.018 565.421, 778.568 562.489 C 779.495 557.548, 778.378 554.178, 774.541 550.341 C 771.560 547.360, 770.606 547, 765.677 547 C 759.590 547, 759.803 546.870, 746.250 558.841 L 739 565.245 738.996 546.873 C 738.993 530.414, 738.789 528.166, 737.040 525.299 C 733.425 519.369, 725.116 517.261, 718.407 520.572" stroke="none" fill="#000000" fill-rule="evenodd"/>
</svg>